<?xml version="1.0" encoding="UTF-8" standalone="no"?>
<svg
   xmlns:dc="http://purl.org/dc/elements/1.1/"
   xmlns:cc="http://creativecommons.org/ns#"
   xmlns:rdf="http://www.w3.org/1999/02/22-rdf-syntax-ns#"
   xmlns:svg="http://www.w3.org/2000/svg"
   xmlns="http://www.w3.org/2000/svg"
   xmlns:xlink="http://www.w3.org/1999/xlink"
   xmlns:sodipodi="http://sodipodi.sourceforge.net/DTD/sodipodi-0.dtd"
   xmlns:inkscape="http://www.inkscape.org/namespaces/inkscape"
   inkscape:version="1.0.2 (e86c8708, 2021-01-15)"
   sodipodi:docname="logo.svg"
   width="124.76298"
   height="78.000023"
   viewBox="0 0 33.010203 20.637506"
   version="1.1"
   id="svg8">
  <sodipodi:namedview
     inkscape:current-layer="layer1"
     inkscape:window-maximized="1"
     inkscape:window-y="23"
     inkscape:window-x="0"
     inkscape:cy="70.457123"
     inkscape:cx="-40.888176"
     inkscape:zoom="1.6399959"
     showgrid="false"
     id="namedview24"
     inkscape:window-height="934"
     inkscape:window-width="1680"
     inkscape:pageshadow="2"
     inkscape:pageopacity="0"
     guidetolerance="10"
     gridtolerance="10"
     objecttolerance="10"
     borderopacity="1"
     bordercolor="#666666"
     pagecolor="#ffffff"
     inkscape:document-rotation="0"
     fit-margin-top="0"
     fit-margin-left="0"
     fit-margin-right="0"
     fit-margin-bottom="0"
     units="px" />
  <defs
     id="defs2">
    <linearGradient
       id="b">
      <stop
         id="stop1076"
         stop-color="#3771c8"
         offset="0" />
      <stop
         id="stop1078"
         offset=".128"
         stop-color="#3771c8" />
      <stop
         id="stop1080"
         stop-opacity="0"
         stop-color="#60f"
         offset="1" />
    </linearGradient>
    <linearGradient
       id="a">
      <stop
         id="stop1083"
         stop-color="#fd5"
         offset="0" />
      <stop
         id="stop1085"
         stop-color="#fd5"
         offset=".1" />
      <stop
         id="stop1087"
         stop-color="#ff543e"
         offset=".5" />
      <stop
         id="stop1089"
         stop-color="#c837ab"
         offset="1" />
    </linearGradient>
    <radialGradient
       fy="578.08801"
       fx="158.429"
       gradientTransform="matrix(0,-1.4292492,1.3296767,0,948.05732,676.04894)"
       gradientUnits="userSpaceOnUse"
       xlink:href="#a"
       r="65"
       cy="578.08801"
       cx="158.429"
       id="c" />
    <radialGradient
       fy="473.45499"
       fx="147.694"
       gradientTransform="matrix(0.12543195,0.62645303,-2.5829145,0.51717421,2880.4838,18.027362)"
       gradientUnits="userSpaceOnUse"
       xlink:href="#b"
       r="65"
       cy="473.45499"
       cx="147.694"
       id="d" />
    <radialGradient
       fy="578.08801"
       fx="158.429"
       gradientTransform="matrix(0,-1.4292492,1.3296767,0,948.05732,676.04894)"
       gradientUnits="userSpaceOnUse"
       xlink:href="#a"
       r="65"
       cy="578.08801"
       cx="158.429"
       id="c-2" />
    <radialGradient
       fy="473.45499"
       fx="147.694"
       gradientTransform="matrix(0.12543195,0.62645303,-2.5829145,0.51717421,2880.4838,18.027362)"
       gradientUnits="userSpaceOnUse"
       xlink:href="#b"
       r="65"
       cy="473.45499"
       cx="147.694"
       id="d-1" />
  </defs>
  <metadata
     id="metadata5">
    <rdf:RDF>
      <cc:Work
         rdf:about="">
        <dc:format>image/svg+xml</dc:format>
        <dc:type
           rdf:resource="http://purl.org/dc/dcmitype/StillImage" />
        <dc:title></dc:title>
      </cc:Work>
    </rdf:RDF>
  </metadata>
  <g
     id="layer1"
     transform="translate(-3356.004,1697.536)">
    <path
       style="fill:black;fill-opacity:1;stroke:none;stroke-width:0.0088574;stroke-linecap:square;stroke-linejoin:miter;stroke-miterlimit:4;stroke-dasharray:none;stroke-dashoffset:0;stroke-opacity:1;paint-order:markers stroke fill"
       d="m 3372.5091,-1697.536 a 6.6146046,6.614539 0 0 0 -6.6146,6.6144 6.6146046,6.614539 0 0 0 6.6146,6.6148 6.6146046,6.614539 0 0 0 6.6146,-6.6148 6.6146046,6.614539 0 0 0 -6.6146,-6.6144 z m -0.033,2.5135 c 0.015,0 0.031,0 0.049,0.01 v 0 c 0.2578,0.1282 0.3773,0.2762 0.9649,0.3499 0.1467,0.063 0.2777,0.2176 0.2434,0.3855 -0.1083,0.2095 -0.314,0.3465 -0.511,0.4659 -0.285,0.1914 -0.6421,0.1788 -0.9622,0.2679 -0.2824,0.075 -0.2514,0.2545 -0.3497,0.5418 -0.052,0.5367 -0.039,1.8023 -0.019,2.3408 0.023,0.5246 0,1.0493 0.027,1.5736 0,0.1957 0.1439,0.4039 0.3296,0.4861 0.537,0.2163 0.6562,0.6111 1.1391,0.9188 0.1401,0.1017 0.3625,0.1288 0.4926,0 0.1432,-0.2632 0.1278,-0.5778 0.074,-0.8631 -0.074,-0.3459 -0.3566,-0.5865 -0.5169,-0.8897 -0.056,-0.1014 -0.1147,-0.244 -0.027,-0.345 0.1968,-0.1123 0.4407,-0.1002 0.6496,-0.029 0.2533,0.1148 0.5138,0.2403 0.7977,0.2487 0.1648,-0.016 0.3594,0.039 0.4376,0.1972 0.06,0.2166 0.034,0.4458 0.019,0.6673 -0.041,0.3828 -0.042,0.7714 0.022,1.1519 0.029,0.2111 0.1105,0.3366 0.023,0.5443 -0.046,0.1345 -0.2049,0.1758 -0.3327,0.161 -0.4883,-0.076 -0.9518,-0.162 -1.4379,-0.2494 -0.5607,-0.118 -1.1385,-0.1124 -1.7069,-0.064 -0.2514,0 -0.4948,0.081 -0.7198,0.1876 -0.1975,0.1046 -0.4323,0.1964 -0.6557,0.1201 -0.2726,-0.1085 -0.4199,-0.378 -0.6284,-0.5671 -0.1443,-0.1 -0.2794,-0.2627 -0.2538,-0.4491 0.068,-0.2346 0.3261,-0.3633 0.5585,-0.3585 0.1289,0.046 0.3081,-0.01 0.3424,-0.1535 0.034,-1.0933 -0.053,-2.185 -0.097,-3.2766 -0.035,-0.3358 0.023,-1.4105 -0.1,-1.7332 -0.075,-0.2025 -0.2861,-0.2949 -0.4543,-0.4065 -0.1324,-0.066 -0.245,-0.2295 -0.1772,-0.3777 0.1465,-0.1026 0.2878,-0.2125 0.421,-0.3319 0.1182,-0.099 0.2268,-0.2521 0.3981,-0.2473 0.1589,0.037 0.227,0.2 0.3286,0.3092 0.201,0.1801 0.4926,0.2007 0.7489,0.1677 0.3229,0 0.6509,-0.2217 0.7212,-0.5451 0.022,-0.084 0.058,-0.2063 0.1623,-0.2039 z"
       id="path1205" />
    <g
       style="fill:black;fill-opacity:1;stroke-width:1.25189"
       transform="matrix(0.05619972,0,0,0.05619972,3132.1602,-1670.7144)"
       id="g4327">
      <path
         style="fill:black;fill-opacity:1;stroke-width:1.25189"
         d="m 4168.4302,-204.09106 c -1.6308,-0.54096 -2.123,1.13176 -2.4092,2.22501 -0.8013,3.69553 -4.5444,6.23118 -8.2268,6.22994 -2.9231,0.37723 -6.2478,0.14374 -8.5398,-1.91624 -1.159,-1.24809 -1.9359,-3.11199 -3.7477,-3.53389 -1.9546,-0.0545 -3.1928,1.68895 -4.5409,2.82656 -1.519,1.36485 -3.1331,2.62113 -4.8046,3.79326 -0.7729,1.69394 0.5128,3.56327 2.0231,4.31749 1.9179,1.27502 4.3211,2.32934 5.1793,4.64354 1.3937,3.6884 0.7381,15.97423 1.139,19.81149 0.4999,12.47673 1.486,24.95317 1.1032,37.44807 -0.3916,1.65532 -2.4368,2.28403 -3.9077,1.75419 -2.65,-0.06 -5.5965,1.41782 -6.3673,4.09893 -0.2927,2.13093 1.2465,3.9889 2.8918,5.13012 2.3784,2.16109 4.0599,5.24326 7.1694,6.48296 2.5482,0.87209 5.2268,-0.17831 7.4799,-1.37301 2.5664,-1.2238 5.341,-2.12532 8.2084,-2.14255 6.4822,-0.54926 13.0739,-0.61484 19.4687,0.7331 5.5443,0.99944 10.8306,1.97994 16.3996,2.85293 1.4577,0.1694 3.2702,-0.3037 3.7951,-1.84075 1.0035,-2.37406 0.068,-3.80758 -0.2594,-6.22071 -0.7328,-4.34838 -0.7174,-8.78996 -0.2492,-13.16557 0.1722,-2.53113 0.4669,-5.15094 -0.2204,-7.62651 -0.8918,-1.81238 -3.1132,-2.43592 -4.9927,-2.25507 -3.2372,-0.0935 -6.2092,-1.53111 -9.0986,-2.84322 -2.3815,-0.80914 -5.1605,-0.94464 -7.4051,0.33902 -0.9963,1.15386 -0.3236,2.78329 0.3113,3.94225 1.8283,3.4651 5.0513,6.21783 5.8946,10.17093 0.617,3.2604 0.7929,6.85225 -0.8401,9.86008 -1.4839,1.50833 -4.02,1.20172 -5.6177,0.0379 -5.5075,-3.51592 -6.8681,-8.02916 -12.9926,-10.50128 -2.1185,-0.93971 -3.7936,-3.31796 -3.7621,-5.55399 -0.3463,-5.99238 -0.042,-11.98972 -0.3067,-17.98611 -0.2319,-6.15447 -0.3794,-20.62068 0.2188,-26.75514 1.1204,-3.28373 0.7659,-5.33946 3.9868,-6.19083 3.6512,-1.01779 7.7255,-0.87559 10.9757,-3.06322 2.247,-1.36475 4.5906,-2.92977 5.826,-5.32422 0.3916,-1.91998 -1.1012,-3.68119 -2.7741,-4.40425 -6.702,-0.84339 -8.0676,-2.53504 -11.008,-4.00114 z"
         id="path4305"
         inkscape:connector-curvature="0"
         sodipodi:nodetypes="ccccccccccccccccccccccccccccccccccccccc" />
      <path
         sodipodi:nodetypes="ccccccccccccccccccccccccccccccccccc"
         inkscape:connector-curvature="0"
         id="path4307"
         d="m 4234.9678,-177.40155 c -5.4762,0.0494 -10.6281,3.33273 -13.4545,7.9467 -2.1721,2.78179 -5.454,4.96247 -9.0745,4.9966 -2.1764,-0.17661 -4.2309,-1.16261 -6.4359,-1.09363 -0.9419,2.33375 -0.2357,4.86816 0.1887,7.23247 0.4866,5.54186 0.4089,11.11553 0.403,16.67454 -0.01,2.23277 0.1117,4.4629 0.2454,6.68991 0.043,2.79282 -0.3325,5.62614 0.2236,8.38697 0.8064,2.69359 3.0781,4.64533 5.4967,5.90585 3.0889,1.77437 6.5941,3.09258 8.9562,5.88056 1.385,1.57185 2.5926,3.54917 4.6826,4.24566 1.8317,0.39919 1.7289,-0.78459 2.3739,-2.42914 2.7311,-5.43627 9.7079,-9.89123 15.6544,-11.30808 1.2912,-0.29579 2.5734,-1.01113 3.1326,-2.26902 0.6354,-1.33799 0.1069,-2.81588 -0.048,-4.19947 -0.1956,-1.20653 -0.2282,-2.47617 0.2271,-3.63046 0.1643,-0.73014 -0.046,-1.81931 -0.9205,-1.94619 -0.7152,-0.0275 -1.5929,0.49498 -2.168,-0.16034 -1.0653,-0.90045 -0.8649,-2.42161 -0.9925,-3.66738 -0.4228,-5.85459 0.6248,-11.67723 0.7174,-17.52369 0.1487,-1.70419 0.8437,-3.30863 1.0791,-4.98982 -0.2306,-1.29475 -1.6167,-1.78059 -2.4449,-2.63191 -2.9559,-2.63989 -4.5702,-6.44963 -5.3412,-10.2679 -0.3692,-1.02532 -1.3716,-1.88967 -2.5012,-1.84223 z m -7.9407,12.81102 c 3.3632,1.34945 5.3285,5.09155 5.1323,8.62352 0.1801,7.47327 0.3043,14.95964 -0.1817,22.42457 -0.597,1.92635 -2.5268,2.86658 -3.9003,4.16557 -0.9906,0.95525 -1.8677,2.35043 -3.3758,2.45119 -1.5868,-0.0361 -2.6971,-1.42494 -3.3539,-2.72893 -2.0454,-3.66786 -2.293,-7.98052 -2.2896,-12.08912 -0.045,-5.89324 0.061,-11.82465 -0.8739,-17.66304 0.2483,-1.50522 1.7676,-2.26743 3.0605,-2.74262 1.8449,-0.87272 3.5502,-2.1387 5.5977,-2.50471 0.062,0.0211 0.1232,0.0424 0.1847,0.0635 z"
         style="fill:black;fill-opacity:1;stroke-width:1.25189" />
      <path
         style="fill:black;fill-opacity:1;stroke-width:1.25189"
         d="m 4295.0457,-204.19399 c -1.406,0.29158 -2.3364,1.96566 -1.9637,3.40098 0.2545,1.32372 0.9796,2.46678 1.4516,3.70685 1.1264,2.58816 1.9064,5.34943 2.2213,8.17834 0.7215,5.01579 0.8206,10.09832 0.8677,15.16158 0.1348,10.13116 0.307,20.26174 0.4539,30.39271 0.04,3.46605 0.046,6.93414 -0.048,10.39886 -0.1605,1.49307 -0.9359,2.81577 -1.811,3.96848 -0.7665,1.06458 -1.5981,2.10884 -2.0865,3.35483 -0.3405,1.28748 0.1091,2.6742 0.8917,3.68393 0.7329,1.02137 1.8736,1.5833 2.9913,2.00613 1.1307,0.42094 2.2384,0.93601 3.224,1.66164 1.5174,1.00596 2.8745,2.26675 4.0414,3.69578 0.9331,1.10845 1.9474,2.21318 3.2615,2.81463 1.1413,0.54913 2.3142,1.09043 3.5684,1.26802 1.86,0.22743 3.7384,-0.46242 5.2346,-1.59992 0.9679,-0.75505 1.8538,-1.61771 2.7509,-2.46154 1.8235,-1.76912 3.5478,-3.64959 5.1885,-5.60509 0.4894,-0.61338 0.8052,-1.43401 0.6572,-2.24043 -0.1007,-0.86449 -0.6148,-1.58411 -1.1318,-2.2318 -1.2796,-1.74562 -2.5044,-3.53695 -3.8576,-5.22198 -0.442,-0.40139 -1.1264,-0.26807 -1.5506,0.0944 -1.1103,0.83645 -1.8206,2.09067 -2.6588,3.19445 -0.5367,0.74061 -1.0992,1.50558 -1.8724,1.98697 -0.9128,0.40239 -2.0831,-0.21521 -2.3071,-1.23048 -0.4234,-1.18163 -0.4327,-2.46143 -0.5249,-3.70417 -0.1618,-3.85431 -0.1078,-7.71371 -0.2126,-11.56958 -0.129,-6.74904 -0.2212,-13.49963 -0.1639,-20.25012 0.037,-7.85012 0.093,-15.70032 0.09,-23.55054 -0.017,-1.91261 -0.1376,-3.82805 -0.021,-5.7392 0.077,-0.97717 0.2094,-2.02122 0.8197,-2.80697 0.7545,-1.04165 1.9903,-1.659 3.2338,-1.6579 0.824,-0.0523 1.6524,-0.0115 2.4741,-0.1046 0.5265,-0.20378 0.6941,-0.84063 0.7418,-1.36998 0.1355,-1.19527 0.4201,-2.40657 1.0713,-3.41529 0.2362,-0.46031 0.4525,-0.94325 0.525,-1.46528 -0.1315,-0.6665 -0.7611,-1.08443 -1.3687,-1.17813 -1.6767,-0.4394 -3.4273,-0.17305 -5.0853,0.2263 -2.9923,0.72099 -5.8717,1.97456 -8.9436,2.31129 -2.0741,0.18671 -4.1603,-0.55828 -5.8292,-1.83149 -1.2588,-0.84941 -2.5028,-1.78721 -3.9544,-2.24021 -0.1221,-0.0159 -0.2441,-0.0406 -0.3675,-0.0314 z"
         id="path4309"
         inkscape:connector-curvature="0"
         sodipodi:nodetypes="cccccsccccccccccccccccccccc" />
      <path
         style="fill:black;fill-opacity:1;stroke-width:1.25189"
         d="m 4364.3705,-177.39658 c -1.0276,0.15099 -2.0082,0.51487 -3.0038,0.79852 -1.3335,0.4186 -2.6968,0.76351 -4.0913,0.89635 -1.8408,0.21992 -3.6815,0.47228 -5.4928,0.87118 -0.5604,0.20023 -0.8865,0.73653 -1.3236,1.1075 -1.5299,1.47054 -3.1891,2.81928 -5.0271,3.88801 -1.7101,1.03511 -3.468,1.99212 -5.2831,2.83099 -1.7235,0.8128 -3.4927,1.52417 -5.2658,2.21945 -1.4358,0.68616 -2.4714,1.96692 -3.295,3.29162 -0.4479,0.73054 -0.9295,1.45601 -1.2107,2.27051 -0.2654,1.06672 0.1336,2.1606 0.6528,3.08478 0.3885,0.72482 0.9064,1.45285 1.7037,1.75787 0.9301,0.39277 1.9531,0.45568 2.9476,0.53099 1.4571,0.0552 2.9279,-0.21794 4.2541,-0.82916 1.2747,-0.53223 2.5099,-1.15388 3.7516,-1.75721 0.6812,-0.37318 1.3855,-0.77978 1.8478,-1.42143 0.543,-0.88831 0.3887,-2.0438 -0.1158,-2.91309 -0.3156,-0.60075 -0.7004,-1.16299 -0.9995,-1.77265 -0.1044,-0.49603 0.3293,-0.93157 0.7771,-1.05618 1.3095,-0.57986 2.6884,-0.97924 4.0211,-1.4995 0.4528,-0.16036 0.9057,-0.32071 1.3585,-0.48106 0.8875,0.0908 1.544,1.01311 1.4226,1.88129 -0.1655,4.61159 -0.2885,9.22452 -0.4168,13.83726 -1.4483,0.75464 -3.1631,0.67054 -4.6291,1.37863 -2.3676,0.97928 -4.5935,2.34973 -7.115,2.91991 -1.7224,0.42392 -3.5081,0.34542 -5.2656,0.43731 -1.3446,0.0765 -2.7252,0.22285 -3.9567,0.80422 -1.2727,0.73178 -1.8895,2.34228 -1.5838,3.75552 0.2011,1.07461 0.5152,2.12515 0.6914,3.20498 0.8447,4.29129 1.159,8.66568 1.308,13.03041 0.1524,3.62561 0.2605,7.25322 0.4564,10.8769 0.2435,1.18114 1.579,1.94426 2.7306,1.66275 1.7927,-0.3994 3.5736,-0.85615 5.3342,-1.3798 2.3669,-0.72827 4.6903,-1.67219 6.7622,-3.04256 0.4495,-0.23786 0.9686,0.029 1.297,0.35167 0.4112,0.4126 0.7977,0.84981 1.2033,1.26845 1.3862,1.45186 2.8724,2.87445 4.6933,3.76538 0.853,0.38128 1.8368,0.48702 2.7388,0.22208 1.4615,-0.35331 2.6512,-1.32183 3.932,-2.05538 1.5572,-0.91659 3.3138,-1.59182 5.1423,-1.59322 2.3336,-0.0411 4.6099,0.74167 6.6275,1.86944 0.7653,0.42739 1.4992,0.91579 2.2918,1.29189 0.3829,0.1537 0.9126,0.20511 1.1973,-0.15668 0.3967,-0.49105 0.3241,-1.16326 0.3656,-1.75355 0.07,-2.57299 0.6485,-5.11584 0.5413,-7.69639 -0.1232,-1.06671 -0.8171,-1.94026 -1.5028,-2.71913 -0.8533,-1.06482 -1.3426,-2.35897 -2.1095,-3.48031 -0.7666,-0.79552 -1.8734,-1.06296 -2.8661,-1.45877 -0.7039,-0.25936 -1.3582,-0.64439 -1.9399,-1.11674 -0.3104,-0.1748 -0.6799,0.16652 -0.6338,0.49167 -0.152,1.70503 0.3672,3.38197 0.2947,5.08514 -0.018,0.25817 -0.01,0.58274 -0.2753,0.71952 -0.3855,0.2201 -0.8976,-0.004 -1.0618,-0.40106 -0.52,-1.07713 -0.452,-2.30214 -0.459,-3.4658 -0.019,-5.75873 0.051,-11.5194 -0.1317,-17.27626 -0.052,-1.7495 -0.1568,-3.49699 -0.2047,-5.24651 -0.07,-3.03298 0.087,-6.0647 0.1225,-9.0969 8e-4,-2.82696 -0.2707,-5.68466 0.257,-8.48352 0.3833,-2.06202 1.2207,-4.00298 2.1342,-5.87892 0.2607,-0.60847 0.4794,-1.31544 0.2124,-1.96076 -0.3152,-0.89615 -1.1273,-1.48124 -1.9216,-1.93054 -0.5674,-0.33032 -1.2289,-0.52572 -1.889,-0.47911 z m -12.8466,34.6463 c 0.2849,0.0758 0.4838,0.34349 0.659,0.56817 0.3887,0.5533 0.4744,1.24916 0.457,1.90871 0.1434,5.60743 0.3126,11.21414 0.4751,16.82102 -0.3029,0.50988 -0.9503,0.6857 -1.5097,0.63177 -1.7651,0.0148 -3.5301,0.0439 -5.2944,0.095 -0.5842,-0.13807 -0.8776,-0.71856 -1.1376,-1.20345 -0.5794,-1.31296 -0.8546,-2.72949 -1.2818,-4.09376 -0.4471,-1.61052 -0.8263,-3.25119 -0.9351,-4.92343 0.2753,-1.45563 0.9726,-2.78567 1.3235,-4.22081 0.1512,-0.57113 0.5812,-1.00147 0.9773,-1.41594 0.8688,-0.85081 1.9183,-1.48041 2.8742,-2.22418 1.0276,-0.7575 2.0813,-1.53463 3.3077,-1.93427 l 0.043,-0.009 z"
         id="path4311"
         inkscape:connector-curvature="0" />
      <path
         style="fill:black;fill-opacity:1;stroke-width:1.25189"
         d="m 4500.0458,-177.40155 c -5.4761,0.0494 -10.628,3.33273 -13.4545,7.9467 -2.1721,2.78179 -5.454,4.96247 -9.0745,4.9966 -2.1764,-0.17661 -4.2309,-1.16261 -6.4359,-1.09363 -0.9419,2.33375 -0.2357,4.86816 0.1887,7.23247 0.4866,5.54186 0.4089,11.11553 0.403,16.67454 -0.01,2.23277 0.1118,4.4629 0.2455,6.68991 0.043,2.79282 -0.3326,5.62614 0.2235,8.38697 0.8064,2.69359 3.0781,4.64533 5.4967,5.90585 3.0889,1.77437 6.5941,3.09258 8.9562,5.88056 1.385,1.57185 2.5926,3.54917 4.6826,4.24566 1.8318,0.39919 1.7289,-0.78459 2.374,-2.42914 2.731,-5.43627 9.7079,-9.89123 15.6543,-11.30808 1.2912,-0.29579 2.5734,-1.01113 3.1327,-2.26902 0.6353,-1.33799 0.1068,-2.81588 -0.048,-4.19947 -0.1955,-1.20653 -0.2282,-2.47617 0.2271,-3.63046 0.1643,-0.73014 -0.045,-1.81931 -0.9205,-1.94619 -0.7152,-0.0275 -1.5929,0.49498 -2.168,-0.16034 -1.0652,-0.90045 -0.8649,-2.42161 -0.9925,-3.66738 -0.4228,-5.85459 0.6248,-11.67723 0.7174,-17.52369 0.1487,-1.70419 0.8438,-3.30863 1.0792,-4.98982 -0.2307,-1.29475 -1.6168,-1.78059 -2.445,-2.63191 -2.9559,-2.63989 -4.5702,-6.44963 -5.3412,-10.2679 -0.3692,-1.02532 -1.3715,-1.88967 -2.5012,-1.84223 z m -7.9407,12.81102 c 3.3632,1.34945 5.3285,5.09155 5.1323,8.62352 0.1801,7.47327 0.3043,14.95964 -0.1817,22.42457 -0.597,1.92635 -2.5268,2.86658 -3.9003,4.16557 -0.9906,0.95525 -1.8677,2.35043 -3.3758,2.45119 -1.5868,-0.0361 -2.6971,-1.42494 -3.3539,-2.72893 -2.0454,-3.66786 -2.2929,-7.98052 -2.2896,-12.08912 -0.045,-5.89324 0.061,-11.82465 -0.8739,-17.66304 0.2483,-1.50522 1.7676,-2.26743 3.0606,-2.74262 1.8448,-0.87272 3.5502,-2.1387 5.5976,-2.50471 0.062,0.0211 0.1232,0.0424 0.1847,0.0635 z"
         id="path4313"
         inkscape:connector-curvature="0"
         sodipodi:nodetypes="ccccccccccccccccccccccccccccccccccc" />
      <path
         style="fill:black;fill-opacity:1;stroke-width:1.25189"
         d="m 4545.0178,-177.4025 c -0.3487,0.008 -0.7022,0.0653 -1.0597,0.17901 -3.2321,1.68555 -4.1793,5.31166 -7.0035,7.57383 -3.1983,2.98432 -3.9597,-3.61489 -6.7607,-4.50727 -2.3972,-1.97435 -5.6974,-3.45426 -8.8213,-2.61957 -2.8222,2.29844 -3.3851,6.83363 -7.5246,7.98299 -2.4561,1.75248 -0.4075,4.86412 2.1663,4.76556 2.8381,1.71773 1.7892,5.51503 2.0837,8.29496 -0.079,9.93234 0.1702,19.88621 -0.5212,29.80029 0.05,-0.0367 0.098,-0.0674 0.1472,-0.10229 -0.1431,0.46627 -0.2979,0.92978 -0.4785,1.38649 -1.0164,2.72299 -1.9897,2.56126 -2.5794,5.35933 1.7705,1.85082 4.4624,2.15423 7.1449,3.14329 2.6823,0.98906 4.7297,-0.10322 9.2145,2.62211 h -10e-4 c 4.4848,2.72535 5.3031,3.38176 7.6296,2.11479 0.4493,-3.10367 2.7163,-9.77561 3.0819,-12.92703 1.6127,-2.43871 -2.0946,-3.28596 -5.4652,-1.33433 -0.807,0.81813 -1.6361,1.12897 -2.2447,0.93643 -0.9749,-3.67663 -0.9991,-6.95621 -0.8551,-10.82145 0.1013,-8.37793 0.06,-16.76425 0.4174,-25.13498 -0.1512,-2.89835 2.9726,-5.9811 5.6308,-3.51355 2.4371,1.87456 4.9571,3.83014 6.7899,6.30343 0.5803,2.73409 1.8017,5.38366 1.4836,8.2561 0.2307,6.41604 0.2756,12.87232 -0.3304,19.26882 -0.058,0.15757 -0.1128,0.31726 -0.1611,0.48229 0.036,0.0888 0.062,0.18365 0.087,0.28026 -0.092,0.89633 -0.1969,1.7915 -0.317,2.68504 0.041,0.031 0.078,0.0592 0.1187,0.09 -0.9977,3.92681 -4.0988,9.32343 -2.0248,10.72632 4.8586,-0.33179 12.8424,1.507 16.9268,3.99994 4.0844,2.49293 7.2186,2.3112 8.1692,-1.5343 0.9692,-2.87417 -0.068,-5.34465 0.058,-8.32362 0.8006,-2.7527 -2.8379,-5.54898 -4.8222,-3.0773 -0.6093,1.56605 -1.8807,1.39047 -2.7327,0.48177 0.06,-0.0285 0.1171,-0.0542 0.1775,-0.0833 -1.9024,-4.80866 -1.6032,-10.18983 -1.811,-15.24536 -0.1629,-7.96341 -0.1305,-15.89105 0.3968,-23.82264 -1.0262,-3.71202 -4.7036,-4.63822 -7.3621,-7.25113 -2.5145,-2.0138 -5.4773,-6.51193 -8.8483,-6.43487 z"
         id="path4315"
         inkscape:connector-curvature="0" />
      <path
         inkscape:connector-curvature="0"
         id="path4317"
         d="m 4393.0646,-204.18646 c -0.8781,0.0983 -1.5507,0.77249 -1.9896,1.48279 -0.9872,1.51779 -1.8163,3.17905 -3.1848,4.41226 -0.419,0.34891 -0.8189,0.72312 -1.1518,1.15491 -1.005,0.99647 -2.5029,1.35428 -3.8921,1.24938 -1.1183,-0.0738 -2.1875,-0.42886 -3.2617,-0.7168 -0.2841,-0.0108 -0.3475,0.3536 -0.2642,0.56131 0.2579,0.55688 0.5519,1.11244 0.6183,1.73106 0.1498,0.97259 -0.1028,1.94847 -0.04,2.9223 0.131,0.88971 0.8014,1.55783 1.3679,2.2127 0.9709,1.11165 1.7782,2.40543 2.0925,3.8545 0.271,1.27898 0.2861,2.59217 0.3577,3.89221 0.098,2.06044 0.1474,12.62716 0.1998,14.68911 -0.061,0.66899 -0.6174,1.13676 -1.123,1.51726 -1.7273,1.36658 -3.4758,2.7782 -4.7278,4.60296 -0.2388,0.36265 -0.4467,0.83272 -0.2363,1.25557 0.2742,0.67756 0.8393,1.20699 1.4572,1.58801 0.2541,0.10799 0.4988,0.37686 0.7927,0.25479 1.1134,-0.25392 1.9998,-1.00646 2.9346,-1.60719 0.2227,-0.11341 0.4467,-0.36231 0.7199,-0.26641 0.3715,0.23192 0.3675,0.7188 0.3719,1.10413 0.156,6.11943 0.1684,3.73697 0.1409,9.85794 -0.042,5.54874 -0.1658,11.09917 -0.5096,16.6383 -0.2758,2.92345 -1.2519,5.71666 -1.858,8.57825 -0.1151,0.55988 -0.277,1.12512 -0.2561,1.69954 0.1081,0.82517 0.7386,1.47426 1.4301,1.89404 1.7404,1.27784 3.6104,2.44919 4.9911,4.12948 1.473,1.68098 2.8419,3.50607 4.7134,4.78623 0.48,0.32089 1.1818,0.35656 1.634,-0.0337 0.8494,-0.5582 1.4764,-1.37375 2.2772,-1.99114 2.1511,-1.87269 4.4579,-3.61719 6.2279,-5.86782 0.5083,-0.60698 0.835,-1.36108 0.8963,-2.14783 0.2594,-1.38936 1.0071,-2.63593 1.8805,-3.73516 0.4561,-0.68963 0.7269,-1.54639 0.542,-2.36788 -0.2263,-0.528 -0.8848,-0.66192 -1.4079,-0.60392 -1.0911,0.0885 -1.9952,0.88348 -3.1055,0.87596 -0.5664,-0.068 -0.9077,-0.57566 -1.2046,-1.00058 -0.5519,-0.772 -1.1591,-1.52985 -1.9526,-2.0742 -0.4423,-0.44346 -0.4026,-1.11148 -0.408,-1.68586 0.023,-4.84649 -0.2354,-9.68803 -0.4263,-14.52935 -0.2708,-6.39213 -0.5601,-4.28449 -0.4419,-10.68384 0.015,-1.27447 0.031,-2.54896 0.047,-3.82343 -0.1634,-0.34066 0.2948,-0.77035 0.6217,-0.54792 0.8823,0.47507 1.5807,1.21199 2.4451,1.71467 0.73,0.49171 1.4729,0.96449 2.2121,1.4425 0.7668,0.0818 1.444,-0.35389 2.1589,-0.54478 3.1192,-1.11248 5.9656,-2.81981 8.8234,-4.45264 0.8577,-0.53367 1.2553,-1.54573 1.3587,-2.50302 0.2219,-1.62932 -0.044,-3.29764 0.3405,-4.90992 0.3624,-1.77791 1.1927,-3.43 2.2032,-4.93294 0.2891,-0.53933 -0.037,-1.20335 -0.5095,-1.52466 -0.4988,-0.32385 -1.1223,-0.35337 -1.7002,-0.38865 -1.1761,-0.0104 -2.2825,0.46325 -3.3042,0.99296 -2.3824,1.15962 -4.5717,2.72164 -6.3767,4.64841 -0.4897,0.39125 -1.1673,0.29854 -1.743,0.20306 -1.1536,-0.24314 -2.2736,-0.70527 -3.4693,-0.7027 -0.9438,-0.0638 -1.8888,-0.11664 -2.8295,-0.21878 -0.344,-0.12869 -0.3484,-0.54947 -0.3886,-0.85251 -0.1933,-1.35705 -0.3099,-11.22854 -0.4216,-12.59375 -0.061,-2.06641 0.3856,-4.15164 -0.032,-6.20214 -0.101,-0.38338 -0.2885,-0.83959 -0.012,-1.19662 0.5058,-0.81408 1.5172,-1.16386 1.9863,-2.00926 0.9516,-1.37951 1.2374,-3.08833 1.2441,-4.72724 0,-0.3955 -0.013,-0.7907 -0.027,-1.18584 -0.6909,-1.12202 -1.8579,-1.83547 -3.0018,-2.44411 -1.1823,-0.5795 -2.5,-0.9485 -3.8295,-0.87397 z"
         style="fill:black;fill-opacity:1;stroke-width:1.25189"
         sodipodi:nodetypes="ccccccccccccccccccccccccccccccccccccccccccccccccccccccccccccccccccc" />
      <path
         sodipodi:nodetypes="ccccccccccccccccccccccccccccccccccccccccccccccccccccccccc"
         inkscape:connector-curvature="0"
         id="path4319"
         d="m 4278.4721,-177.26969 c -2.4217,0.055 -4.6878,1.26204 -6.4016,2.92064 -0.981,0.92673 -1.7909,2.01757 -2.4991,3.16127 -1.6072,2.10298 -3.4965,4.10686 -5.9274,5.24613 -0.8321,0.37334 -1.7185,0.67302 -2.6291,0.75259 -2.1779,-0.12688 -4.1189,-1.46241 -6.3257,-1.38324 -0.6405,0.0305 -1.2633,0.21298 -1.8652,0.42079 -1.1691,0.4939 -2.1709,1.63626 -2.1585,2.95428 0.011,0.84903 0.5737,1.53852 0.9685,2.24751 0.7253,1.193 1.5241,2.4755 1.4671,3.92659 -0.038,0.57523 0.1153,1.1449 0.1556,1.71842 1.2266,10.52629 1.3797,21.16365 0.6957,31.73443 0.1601,1.72661 1.3656,3.18969 2.823,4.04291 0.5435,0.34145 1.1544,0.55119 1.749,0.77571 3.7884,2.03139 7.3653,4.53231 11.4661,5.92049 0.8468,0.3085 1.7502,0.44885 2.5572,0.86456 1.4434,0.66033 2.7876,1.60796 4.3664,1.92037 2.1041,0.11747 4.1342,-1.00341 5.4054,-2.63944 1.0401,-1.30382 1.6216,-2.96272 1.6003,-4.63233 0.013,-1.4139 -0.4685,-2.76386 -0.8443,-4.10648 -0.071,-1.30036 1.1644,-2.59144 2.4936,-2.37059 0.8038,0.2346 1.6782,0.16974 2.4774,-0.06 0.8853,-0.25599 1.6687,-0.88358 2.0262,-1.74395 0.8912,-1.50977 0.8445,-3.38535 0.3516,-5.01922 -0.2018,-0.72148 -0.5161,-1.40622 -0.8318,-2.08099 -0.3097,-1.2072 -0.9755,-2.39605 -2.0532,-3.07062 -0.7173,-0.46432 -1.6725,-0.44951 -2.4008,-0.017 -1.6732,0.83721 -2.815,2.37259 -4.1695,3.61017 -2.0134,2.13908 -3.7828,5.82527 -5.6922,8.05437 -3.3949,-1.16654 -6.6099,-4.46211 -8.8133,-7.34114 -0.2987,-0.35938 -0.539,-0.7599 -0.6724,-1.21017 -0.7309,-2.04698 -0.4887,-4.25342 -0.384,-6.37748 0.067,-0.99004 0.041,-1.98177 0,-2.97176 -0.073,-4.16002 -0.6056,-8.31286 -0.4115,-12.47541 0.4152,-1.53913 1.6122,-2.69966 2.8638,-3.60923 1.1588,-0.86411 2.4185,-1.60596 3.4383,-2.64334 1.2212,-1.14808 2.4388,-2.44259 4.0891,-2.94648 0.5242,-0.15331 1.1013,-0.2794 1.6208,-0.0374 1.2296,0.50733 1.7986,1.99114 1.5696,3.24471 -0.3906,1.73932 -1.3741,3.25239 -2.136,4.8413 -0.5408,1.10707 -0.909,2.31784 -0.8912,3.55954 -0.017,1.55592 0.4902,3.2165 1.7085,4.24889 0.5686,0.47793 1.3005,0.78175 2.0523,0.71621 1.5152,-0.0655 2.8112,-0.96208 4.0225,-1.7868 0.9877,-0.69092 1.9273,-1.44955 2.8693,-2.20128 0.4217,-0.36401 0.8823,-0.70523 1.2485,-1.11942 0.2061,-0.43238 -0.1787,-0.87224 -0.5853,-0.98296 -0.3917,-0.13803 -0.8274,-0.0166 -1.2078,-0.21252 -0.4991,-0.16859 -0.9634,-0.68218 -0.7861,-1.23814 0.2231,-1.12423 0.9949,-2.02325 1.8,-2.79299 0.5962,-0.56928 1.1833,-1.14984 1.7061,-1.78761 1.06,-1.15533 1.9413,-2.63016 1.9129,-4.2449 -0.011,-0.82941 -0.3761,-1.59225 -0.646,-2.36047 -1.1209,-2.81288 -2.9666,-5.24289 -4.5111,-7.82419 -1.3482,-1.65698 -3.1507,-3.08184 -5.2914,-3.49111 -0.4504,-0.0848 -0.9099,-0.1197 -1.3679,-0.10322 z"
         style="fill:black;fill-opacity:1;stroke-width:1.25189" />
      <path
         sodipodi:nodetypes="ccccccccccccccccccccccccccccccccccccccccccccccccccccccccccccccc"
         inkscape:connector-curvature="0"
         id="path4321"
         d="m 4430.2708,-204.19211 c -1.1034,-0.009 -2.2547,0.58531 -2.6942,1.63342 -0.9253,1.55293 -1.5581,3.35323 -2.9812,4.54645 -1.3971,1.01297 -3.3177,1.04279 -4.8738,0.39491 -1.1032,-0.35058 -2.273,-0.67479 -3.4371,-0.46138 -0.65,0.35325 -0.7175,1.26577 -0.3831,1.8612 0.4895,1.28044 0.6555,2.66481 0.6138,4.02932 0.2151,1.4772 1.3031,2.69191 2.5846,3.38221 0.8731,0.59821 1.1038,1.74693 1.0171,2.74062 0.4047,10.21949 0.8937,20.44493 0.6909,30.67538 -0.092,9.49129 0.079,18.98217 0.1845,28.47262 -0.1203,0.47411 -0.5588,0.76894 -0.865,1.12174 -1.0496,1.00924 -2.3698,1.75661 -3.2075,2.9721 -0.2776,0.56142 -0.012,1.1837 0.3014,1.66663 0.6068,1.01726 1.4574,1.86199 2.0768,2.87133 1.2734,1.77236 2.3328,3.68824 3.5799,5.47674 0.9722,1.08296 2.2898,1.83437 3.6979,2.18472 1.6545,-0.53915 2.8893,-1.83492 4.0864,-3.034 1.9257,-2.0804 3.6548,-4.33521 5.2933,-6.64579 0.375,-0.55358 0.7293,-1.12084 1.0915,-1.68288 0.1884,-0.85751 -0.4232,-1.58757 -0.866,-2.2522 -0.6875,-1.0873 -1.3564,-2.18624 -2.0099,-3.29424 -0.4429,-4.7143 -0.038,-9.44896 -0.1288,-14.17259 0,-4.73824 0.034,-14.20033 0.057,-18.93848 1.0482,-1.40903 2.7001,-2.14084 4.0195,-3.24637 l 2.745,-1.95989 c 0.9338,-0.20836 1.7998,0.40248 2.4027,1.05375 1.6577,1.49468 4.1719,3.35857 5.5389,5.13601 0.6631,1.88131 -0.2302,7.2343 -0.036,9.18053 0.1548,2.22025 -0.1335,5.96091 -0.017,8.18403 0.1808,2.8931 0.5016,5.52445 0.5297,8.42247 0.033,2.27009 0.1936,3.33909 0.3809,5.60303 0.1218,1.75662 0.7716,3.78241 0.8717,5.53953 -0.077,1.06152 -1.8202,2.41059 -1.8548,3.48343 0.202,1.19759 1.077,2.11812 1.8463,3.00005 1.3232,1.39377 2.5653,2.88067 4.0641,4.09376 1.0361,0.8112 2.2346,1.5016 3.5578,1.67452 0.7222,0.10075 1.4254,-0.16544 2.0226,-0.55284 0.921,-0.57653 0.8129,-1.72844 1.6566,-2.40672 1.2404,-1.52181 2.7628,-2.00673 3.9503,-3.66857 1.1881,-2.21413 3.3574,-4.01531 3.7008,-7.48221 0.018,-0.77918 1.0063,-2.29285 0.9463,-3.07019 -0.2935,-0.62529 -1.9489,-0.16596 -2.3958,0.32226 -0.576,0.35789 -1.1377,0.7469 -1.7635,1.01467 -0.7966,-0.23687 -1.0969,-1.09671 -1.3881,-1.78691 -1.1057,-2.77492 -1.2971,-5.81075 -1.2369,-8.76767 0.046,-3.19655 -0.989,-15.07629 -0.9457,-18.27305 0.076,-3.53682 1.2887,-3.87195 1.1037,-7.40575 -0.405,-1.85661 -1.7216,-3.30167 -2.8651,-4.74952 -2.891,-3.47274 -6.2199,-6.5418 -9.522,-9.61413 -1.2802,-0.873 -3.0143,-0.78181 -4.3578,-0.10165 -4.635,4.57483 -8.5752,6.66426 -11.824,7.17106 -0.3101,0.22301 -0.7196,-0.0641 -0.6888,-0.42557 -0.016,-0.48073 0.032,-0.96151 0,-1.44339 -0.03,-7.57827 -0.3376,-9.67201 -0.7737,-17.23691 -0.104,-0.65564 -0.6091,-1.26107 -0.4126,-1.94917 0.4037,-0.78189 1.3396,-0.96555 2.0751,-1.3003 1.0474,-0.39546 2.1958,-0.9211 2.6822,-2.00383 0.7506,-1.49132 0.7111,-3.25206 0.3502,-4.84439 -0.3578,-1.18247 -1.3485,-2.04817 -2.4208,-2.5889 -1.4799,-0.92851 -2.9445,-1.94289 -4.615,-2.49758 -0.3816,-0.0736 -0.7725,-0.0532 -1.1587,-0.0515 z"
         style="fill:black;fill-opacity:1;stroke-width:1.25189" />
      <path
         sodipodi:nodetypes="ccccccccccccccccccccccccccccccccccccccc"
         inkscape:connector-curvature="0"
         id="path4323"
         d="m 4016.1414,-204.09106 c -1.6308,-0.54096 -2.123,1.13176 -2.4092,2.22501 -0.8013,3.69553 -4.5444,6.23118 -8.2268,6.22994 -2.9231,0.37723 -6.2478,0.14374 -8.5398,-1.91624 -1.159,-1.24809 -1.9359,-3.11199 -3.7477,-3.53389 -1.9546,-0.0545 -3.1928,1.68895 -4.5409,2.82656 -1.519,1.36485 -3.1331,2.62113 -4.8046,3.79326 -0.7729,1.69394 0.5128,3.56327 2.0231,4.31749 1.9179,1.27502 4.3211,2.32934 5.1793,4.64354 1.3937,3.6884 0.7381,15.97423 1.139,19.81149 0.4999,12.47673 1.486,24.95317 1.1032,37.44807 -0.3916,1.65532 -2.4368,2.28403 -3.9077,1.75419 -2.65,-0.06 -5.5965,1.41782 -6.3673,4.09893 -0.2927,2.13093 1.2465,3.9889 2.8918,5.13012 2.3784,2.16109 4.0599,5.24326 7.1694,6.48296 2.5482,0.87209 5.2268,-0.17831 7.4799,-1.37301 2.5664,-1.2238 5.341,-2.12532 8.2084,-2.14255 6.4822,-0.54926 13.0739,-0.61484 19.4687,0.7331 5.5443,0.99944 10.8306,1.97994 16.3996,2.85293 1.4577,0.1694 3.2702,-0.3037 3.7951,-1.84075 1.0035,-2.37406 0.068,-3.80758 -0.2594,-6.22071 -0.7328,-4.34838 -0.7174,-8.78996 -0.2492,-13.16557 0.1722,-2.53113 0.4669,-5.15094 -0.2204,-7.62651 -0.8918,-1.81238 -3.1132,-2.43592 -4.9927,-2.25507 -3.2372,-0.0935 -6.2092,-1.53111 -9.0986,-2.84322 -2.3815,-0.80914 -5.1605,-0.94464 -7.4051,0.33902 -0.9963,1.15386 -0.3236,2.78329 0.3113,3.94225 1.8283,3.4651 5.0513,6.21783 5.8946,10.17093 0.617,3.2604 0.7929,6.85225 -0.8401,9.86008 -1.4839,1.50833 -4.02,1.20172 -5.6177,0.0379 -5.5075,-3.51592 -6.8681,-8.02916 -12.9926,-10.50128 -2.1185,-0.93971 -3.7936,-3.31796 -3.7621,-5.55399 -0.3463,-5.99238 -0.042,-11.98972 -0.3067,-17.98611 -0.2319,-6.15447 -0.3794,-20.62068 0.2188,-26.75514 1.1204,-3.28373 0.7659,-5.33946 3.9868,-6.19083 3.6512,-1.01779 7.7255,-0.87559 10.9757,-3.06322 2.247,-1.36475 4.5906,-2.92977 5.826,-5.32422 0.3916,-1.91998 -1.1012,-3.68119 -2.7741,-4.40425 -6.702,-0.84339 -8.0676,-2.53504 -11.008,-4.00114 z"
         style="fill:black;fill-opacity:1;stroke-width:1.25189" />
      <path
         inkscape:connector-curvature="0"
         id="path4325"
         d="m 4080.0645,-175.58919 c -0.2548,0.0107 -0.5111,0.046 -0.7588,0.10742 -1.0977,0.27196 -4.1618,1.39418 -4.8104,1.76181 -0.65,0.36846 -2.7404,1.48659 -3.6668,1.96155 -0.849,0.43527 -1.3332,0.93594 -2.377,2.4585 -0.9118,1.32994 -2.6045,2.89001 -4.8438,4.46344 -2.6457,1.85902 -3.5819,2.38157 -5.817,3.2483 -2.8303,1.09749 -4.6263,2.02953 -4.995,2.59219 -0.4035,0.61529 -0.4056,1.4801 -0.01,3.42854 0.3169,1.55243 0.4356,2.52665 0.9068,7.43559 0.1129,1.17645 0.1849,4.75163 0.1599,7.94488 -0.043,5.52882 -0.067,5.85352 -0.5017,6.80495 -0.4605,1.00815 -2.0334,3.08422 -3.6724,4.84738 -0.4895,0.52658 -0.8328,1.05007 -0.7628,1.16339 0.2505,0.40527 1.5126,0.4804 2.3622,0.14046 0.593,-0.23726 0.9327,-0.27283 1.2068,-0.12614 0.4305,0.23038 0.5218,0.57379 0.8415,3.16158 0.4075,3.29743 0.5069,3.86447 0.756,4.31779 0.2158,0.39283 2.4991,2.30294 2.7529,2.30294 0.3809,0 6.244,3.98544 7.4722,5.07934 0.8404,0.74839 1.7546,1.51607 2.0316,1.70571 h 4e-4 c 0.6357,0.43524 1.8731,0.44306 2.6969,0.0171 0.8773,-0.45367 5.5633,-4.01824 6.6796,-5.08093 0.5042,-0.48002 1.5945,-1.75415 2.4231,-2.83134 0.8285,-1.07716 1.8684,-2.24493 2.3109,-2.59536 0.4424,-0.35043 1.2313,-1.04885 1.753,-1.55174 1.0572,-1.01908 3.0417,-2.35063 4.9075,-3.29246 0.6778,-0.34216 2.4687,-1.44629 3.9796,-2.45413 3.497,-2.33258 3.9652,-3.11998 2.9916,-5.02842 -0.4978,-0.97573 -1.4276,-1.74891 -2.9471,-2.45093 -1.3868,-0.64073 -2.1772,-1.40759 -2.1772,-2.11234 0,-0.30521 0.1947,-1.06348 0.4325,-1.68503 0.4527,-1.18293 0.4107,-1.75784 -0.1285,-1.75784 -0.4352,0 -1.8348,0.72067 -2.9789,1.53422 -0.5189,0.36895 -1.2522,0.82906 -1.6297,1.02255 -0.3775,0.19349 -0.7428,0.43896 -0.8117,0.54551 -0.069,0.10654 -0.3134,0.30019 -0.5431,0.4301 -1.703,0.96308 -3.6469,2.29204 -4.0007,2.73503 -0.6004,0.75161 -0.9384,1.80243 -0.8009,2.48993 0.1368,0.68393 0.7375,1.02196 2.7199,1.53026 1.5698,0.40255 2.6483,1.14234 2.6483,1.81633 0,0.6241 -0.678,1.45902 -1.5983,1.9687 -0.4096,0.22683 -1.2945,0.7745 -1.9667,1.21713 -0.6723,0.44263 -1.3598,0.8654 -1.5279,0.93939 -0.1681,0.074 -1.2295,0.76428 -2.3586,1.53422 -2.7409,1.86886 -3.0537,1.90879 -5.2179,0.66884 -2.8126,-1.61151 -4.3921,-2.74463 -5.2014,-3.73171 l -0.7691,-0.93781 -0.063,-4.05997 c -0.043,-2.78906 0.012,-4.2411 0.1774,-4.63969 0.4539,-1.09586 2.9584,-2.98446 5.6694,-4.27522 2.4829,-1.1822 3.0103,-1.36073 7.8367,-2.65029 1.8652,-0.49837 2.7478,-0.85874 3.8737,-1.58158 0.8021,-0.51489 2.3596,-1.39349 3.4612,-1.95279 1.9193,-0.97445 2.0356,-1.07225 2.7875,-2.34272 0.4316,-0.7292 0.9881,-1.86035 1.2367,-2.51342 0.4116,-1.08182 0.4289,-1.28102 0.1933,-2.24086 -0.1422,-0.5794 -0.7441,-2.06159 -1.3377,-3.29405 -0.5935,-1.23248 -1.3342,-2.79091 -1.6456,-3.46315 -0.3114,-0.67228 -0.8212,-1.63914 -1.1328,-2.14818 -0.3115,-0.509 -0.9742,-1.97577 -1.4729,-3.25943 -0.4987,-1.28367 -1.1416,-2.8906 -1.4284,-3.57137 -0.3098,-0.73541 -0.6046,-1.97561 -0.7261,-3.05572 -0.1625,-1.44371 -0.2925,-1.89011 -0.6319,-2.16806 -0.4465,-0.36577 -1.1949,-0.55452 -1.9591,-0.52241 z m -7.6214,16.90354 c 0.3298,0.0185 0.6294,0.24432 0.999,0.66528 1.4481,1.64927 3.68,6.63387 3.8495,8.5974 0.1844,2.13495 0.2627,2.0773 -6.9728,5.11992 -1.3445,0.56539 -2.859,1.08356 -3.3657,1.15146 -1.4518,0.19457 -1.5899,-0.0175 -1.65,-2.53568 -0.049,-2.03326 0.1536,-6.32148 0.3426,-7.2649 0.049,-0.24615 0.9641,-1.16543 2.0749,-2.0849 1.0928,-0.90456 2.4815,-2.10421 3.0856,-2.6662 0.7386,-0.68711 1.2128,-1.00619 1.6369,-0.98238 z"
         style="fill:black;fill-opacity:1;stroke-width:1.25189" />
    </g>
  </g>
</svg>
