<?xml version="1.0" encoding="utf-8"?>
<!-- Generator: Adobe Illustrator 17.1.0, SVG Export Plug-In . SVG Version: 6.00 Build 0)  -->
<!DOCTYPE svg PUBLIC "-//W3C//DTD SVG 1.1//EN" "http://www.w3.org/Graphics/SVG/1.1/DTD/svg11.dtd">
<svg version="1.1" xmlns="http://www.w3.org/2000/svg" xmlns:xlink="http://www.w3.org/1999/xlink" x="0px" y="0px"
	 viewBox="0 0 368.504 208.347" width="368.504" height="208.347" enable-background="new 0 0 368.504 208.347" xml:space="preserve">
<g id="Label">
	<rect x="0.001" y="0.001" fill="#DA2323" width="368.504" height="208.346"/>
</g>
<g id="Logo_französisch">
	<g>
		<g>
			<g>
				<path fill="#FFFFFF" d="M157.339,143.761c-3.063,0-4.75,2.861-4.75,8.075c0,5.162,1.687,8.003,4.75,8.003
					c3.108,0,4.748-2.769,4.748-8.003C162.087,146.548,160.447,143.761,157.339,143.761 M157.339,167.487
					c-10.066,0-13.636-8.431-13.636-15.651c0-11.594,7.042-15.723,13.636-15.723c6.592,0,13.636,4.129,13.636,15.723
					C170.975,163.376,163.931,167.487,157.339,167.487"/>
				<path fill="#FFFFFF" d="M184.171,159.302c0.633,0.37,1.524,0.713,3.151,0.713c2.422,0,5.643-0.888,5.643-8.592
					c0-5.163-1.574-7.662-4.811-7.662c-1.506,0-2.841,0.631-3.983,1.883V159.302z M186.854,167.487
					c-6.507,0-9.809-2.289-11.219-3.264l-0.169-0.117v-38.922l8.705-1.191v15.045c1.275-1.307,3.565-2.925,7.118-2.925
					c6.713,0,10.564,5.189,10.564,14.246C201.854,161.723,196.805,167.487,186.854,167.487"/>
				<path fill="#FFFFFF" d="M211.111,134.09c-2.779,0-4.443-1.62-4.443-4.333v-0.271c0-2.721,1.619-4.279,4.443-4.279
					c2.82,0,4.443,1.558,4.443,4.279v0.271C215.555,132.47,213.891,134.09,211.111,134.09 M215.467,166.774h-8.709v-29.952h8.709
					V166.774z"/>
				<polygon fill="#FFFFFF" points="221.787,166.774 230.553,166.774 230.553,123.993 221.787,125.21 				"/>
				<path fill="#FFFFFF" d="M241.234,134.09c-2.779,0-4.443-1.62-4.443-4.333v-0.271c0-2.721,1.621-4.279,4.443-4.279
					c2.82,0,4.443,1.558,4.443,4.279v0.271C245.678,132.47,244.018,134.09,241.234,134.09 M245.59,166.774h-8.707v-29.952h8.707
					V166.774z"/>
				<polygon fill="#FFFFFF" points="128.27,125.193 118.122,152.466 108.028,125.193 98.686,125.193 95.981,166.763 
					104.749,166.763 106.079,144.213 114.777,166.763 121.406,166.763 130.043,144.213 131.373,166.763 140.202,166.763 
					137.498,125.193 				"/>
				<path fill="#FFFFFF" d="M321.197,158.42c-1.658,1.131-3.963,1.704-6.141,1.704c-4.037,0-6.535-1.519-6.898-5.847h17.738
					c0,0,0.039-2.378,0.055-3.171c0.176-9.97-5.004-15.02-12.586-15.02c-8.955,0-14.016,7.361-14.016,15.256
					c0,9.375,5.156,16.127,14.846,16.127c5.891,0,9.342-2.166,11.156-3.914l-3.871-5.379L321.197,158.42z M313.568,143.446
					c2.883,0,4.678,1.509,4.961,5.139l-10.412,0.002C308.58,144.807,310.679,143.446,313.568,143.446z"/>
				<path fill="#FFFFFF" d="M290.548,166.778h-8.707v-29.952h7.066l1.228,2.931c1.123-1.957,3.094-3.525,7.65-3.525h1.44l-1.1,7.41
					c0,0-1.057-0.094-1.793-0.094c-2.59,0-4.525,1.437-5.785,3.658V166.778z"/>
				<g>
					<g>
						<g>
							<g>
								<path fill="#FFFFFF" d="M270.29,133.907h-5.971l-10.06-6.425v-1.966h9.244L270.29,133.907z"/>
							</g>
						</g>
					</g>
					<path fill="#FFFFFF" d="M272.168,158.42c-1.658,1.131-3.961,1.704-6.141,1.704c-4.039,0-6.535-1.519-6.898-5.847h17.738
						c0,0,0.041-2.378,0.055-3.171c0.174-9.97-5.004-15.02-12.586-15.02c-8.953,0-14.017,7.361-14.017,15.256
						c0,9.375,5.158,16.127,14.847,16.127c5.891,0,9.344-2.166,11.156-3.914l-3.873-5.379L272.168,158.42z M264.537,143.446
						c2.885,0,4.682,1.509,4.963,5.139l-10.414,0.002C259.552,144.807,261.648,143.446,264.537,143.446z"/>
				</g>
			</g>
		</g>
		<g>
			<g>
				<path fill="#FFFFFF" d="M48.193,161.872l4.476-37.837l-0.139-0.033c-0.5-0.125-1.92-0.252-2.576-0.252
					c-2.686,0-4.816,0.781-6.172,1.469c-0.6,0.602-1.162,2.611-1.162,3.268v0.18l4.428-0.492l-4.557,34.544
					c0,1.135,1.029,3.322,2.203,4.682l0.049,0.057h0.074c1.844,0,5.447-0.697,7.414-1.434l0.053-0.02l0.027-0.047
					c0.512-0.83,1.014-2.588,1.014-3.549v-0.178l-4.885,0.502C48.326,162.452,48.195,161.98,48.193,161.872z"/>
			</g>
			<g>
				<path fill="#FFFFFF" d="M79.304,162.732c-0.117-0.355-0.256-0.988-0.258-1.105l2.982-22.791l-0.08-0.055
					c-1.486-1.051-4.674-2.815-9.307-2.815c-5.887,0-9.576,3.365-11.633,6.191c-2.613,3.645-4.111,8.773-4.111,14.068
					c0,9.77,5.1,11.23,8.139,11.23c2.691,0,6.408-1.205,8.801-4.576h0.092c0.264,1.461,0.928,3.326,1.602,4.494l0.049,0.082h0.092
					c1.688,0,5.52-0.676,7.42-1.436l0.049-0.017l0.029-0.047c0.5-0.816,1.012-2.576,1.012-3.486v-0.176L79.304,162.732z
					 M67.572,162.927c-3.293,0-5.033-2.553-5.033-7.383c0-3.496,0.814-8.383,2.637-11.418c1.74-2.854,4.508-4.559,7.404-4.559
					c1.41,0,2.904,0.332,3.846,0.852l-2.504,18.08C72.488,161.189,69.994,162.927,67.572,162.927z"/>
			</g>
		</g>
	</g>
</g>
<g id="Schutzzone" display="none">
</g>
</svg>
